<svg id="Layer_1" data-name="Layer 1" xmlns="http://www.w3.org/2000/svg" viewBox="0 0 202.81 202.81"><defs><style>.cls-1{fill:#fff;}</style></defs><title>linkedin</title><path class="cls-1" d="M286.44,95.09H113.61a14.8,14.8,0,0,0-15,14.62V283.26a14.81,14.81,0,0,0,15,14.63H286.44a14.84,14.84,0,0,0,15-14.63V109.7A14.83,14.83,0,0,0,286.44,95.09ZM158.79,267.91H128.71V171.12h30.08v96.79Zm-15-110a17.44,17.44,0,1,1,17.43-17.45A17.45,17.45,0,0,1,143.76,157.89Zm127.7,110H241.4V220.84c0-11.23-.21-25.67-15.63-25.67-15.65,0-18.05,12.23-18.05,24.85v47.88H177.66V171.12h28.86v13.22h0.4c4-7.61,13.83-15.63,28.46-15.63,30.46,0,36.09,20,36.09,46.11v53.09Z" transform="translate(-98.64 -95.09)"/></svg>