<svg id="Layer_1" data-name="Layer 1" xmlns="http://www.w3.org/2000/svg" viewBox="0 0 84.5 53.4"><defs><style>.cls-1{fill:#0b0c0c;}</style></defs><title>logo</title><path class="cls-1" d="M84.5,53.4H0V0H84.5V53.4ZM3.1,50.3H81.4V3.1H3.1V50.3Z"/><path class="cls-1" d="M32.8,15.9a9.63,9.63,0,0,1,8.6,4.6l-3.7,2a6.07,6.07,0,0,0-4.9-2.6,6.47,6.47,0,0,0-6.5,6.4v0.4a6.48,6.48,0,0,0,6.1,6.8h0.4a6.9,6.9,0,0,0,4.5-1.6V29.4H31.7V25.6h9.9v8a11.21,11.21,0,0,1-8.9,3.9c-6.1,0-11.1-4.3-11.1-10.8S26.7,15.9,32.8,15.9Z"/><path class="cls-1" d="M53.6,29.6H50.4v7.5H46V16.3h9.8c4.3,0,7,2.8,7,6.7a5.94,5.94,0,0,1-4.6,6.2l4.7,7.9H57.8ZM55,20.1H50.3v5.8H55a2.85,2.85,0,0,0,.3-5.7A0.37,0.37,0,0,0,55,20.1Z"/></svg>