<svg id="Layer_1" data-name="Layer 1" xmlns="http://www.w3.org/2000/svg" viewBox="0 0 358.65 291.63"><defs><style>.cls-1{fill:#fff;}</style></defs><title>twitter</title><g id="Logo_FIXED" data-name="Logo — FIXED"><path class="cls-1" d="M133.39,345.81c135.34,0,209.39-112.23,209.39-209.39,0-3.16,0-6.31-.14-9.47a149.93,149.93,0,0,0,36.74-38.18A149.15,149.15,0,0,1,337,100.4a74,74,0,0,0,32.43-40.76,146.39,146.39,0,0,1-46.79,17.8,73.61,73.61,0,0,0-127.3,50.37,81.34,81.34,0,0,0,1.87,16.79A209,209,0,0,1,45.55,67.68,73.89,73.89,0,0,0,68.37,166a74.44,74.44,0,0,1-33.3-9.19v1a73.75,73.75,0,0,0,59,72.19,74,74,0,0,1-33.15,1.29,73.59,73.59,0,0,0,68.74,51.09A147.6,147.6,0,0,1,38.24,314a141.62,141.62,0,0,1-17.51-1,209.34,209.34,0,0,0,112.66,32.87" transform="translate(-20.73 -54.19)"/></g></svg>